<?xml version="1.0" standalone="no"?>
<!DOCTYPE svg PUBLIC "-//W3C//DTD SVG 20010904//EN"
 "http://www.w3.org/TR/2001/REC-SVG-20010904/DTD/svg10.dtd">
<svg version="1.0" xmlns="http://www.w3.org/2000/svg"
 width="360.000000pt" height="212.000000pt" viewBox="0 0 360.000000 212.000000"
 preserveAspectRatio="xMidYMid meet">

<g transform="translate(0.000000,212.000000) scale(0.100000,-0.100000)"
fill="#000000" stroke="none">
<path d="M1685 2081 c-275 -46 -521 -197 -667 -412 -46 -68 -58 -79 -88 -84
-274 -46 -528 -158 -619 -274 -37 -46 -70 -117 -71 -148 l0 -22 72 25 c40 14
82 23 93 20 15 -3 28 8 53 47 45 71 129 139 237 192 113 55 216 89 225 74 5
-7 9 -5 13 5 4 9 11 16 17 16 6 0 1 -18 -10 -40 -22 -44 -35 -53 -25 -17 5 17
4 19 -4 7 -13 -18 -51 -141 -50 -161 1 -16 13 18 29 79 7 26 16 42 23 39 7 -2
23 19 37 47 17 35 32 52 47 54 22 3 22 3 5 -37 -11 -28 -23 -41 -37 -42 -15 0
-16 -2 -5 -6 8 -3 18 -11 22 -17 5 -7 8 -7 8 2 0 9 13 13 43 12 62 -3 62 -3
63 38 l1 37 -14 -32 c-11 -28 -18 -33 -48 -33 -19 0 -35 5 -35 10 0 8 25 66
34 77 0 0 18 4 39 8 33 7 37 5 30 -11 -5 -16 -4 -16 13 2 21 25 104 40 104 21
0 -9 2 -9 8 -1 4 6 32 14 64 18 49 6 57 5 61 -11 4 -16 5 -17 6 0 1 14 11 17
70 17 58 0 70 -3 74 -17 4 -17 5 -17 6 0 1 14 12 17 69 18 l67 2 -62 10 c-35
5 -63 14 -63 18 0 5 31 9 69 9 l70 0 -1 -40 c0 -23 2 -44 6 -47 3 -4 6 3 6 15
0 11 8 23 18 25 16 4 16 5 0 6 -11 1 -18 9 -18 21 0 18 7 20 79 20 l80 0 4
-47 3 -48 2 48 2 47 74 0 75 0 4 -37 4 -38 1 38 2 37 144 0 144 0 20 -80 20
-80 -73 0 c-62 0 -74 3 -78 18 -4 16 -5 16 -6 0 -1 -14 -10 -18 -38 -18 -20 0
-34 -3 -31 -6 4 -3 56 -5 116 -5 97 1 111 -1 115 -16 4 -17 5 -17 6 0 1 14 11
17 65 17 59 0 65 -2 69 -22 4 -23 4 -23 6 -1 1 14 9 23 24 26 20 4 20 4 -4 6
-26 1 -31 11 -66 134 -4 17 1 18 46 16 28 -2 52 -1 54 2 3 2 -4 13 -15 24 -17
17 -18 18 -12 2 6 -16 1 -18 -50 -16 -31 1 -59 -1 -63 -4 -3 -4 0 -7 8 -7 10
0 23 -25 37 -68 12 -38 22 -72 22 -76 0 -4 -28 -6 -62 -4 l-62 3 -18 70 c-22
88 -23 83 10 88 26 4 26 4 -4 6 -29 1 -33 6 -54 61 -13 34 -24 59 -27 57 -2
-3 5 -28 17 -56 11 -28 20 -54 20 -56 0 -3 -29 -5 -65 -5 -45 0 -65 4 -65 13
0 9 -2 9 -8 0 -6 -9 -68 -12 -234 -12 l-227 0 -4 37 -4 37 -1 -37 -2 -38 -75
0 -75 0 5 28 5 27 -11 -27 c-10 -27 -14 -28 -75 -28 -35 0 -64 2 -64 4 0 2 7
20 16 41 8 20 13 39 11 41 -2 3 -12 -15 -21 -40 -18 -47 -33 -56 -99 -56 l-37
0 35 70 35 70 50 0 c42 0 49 -2 44 -17 -5 -17 -5 -17 6 0 6 9 23 18 38 18 24
2 24 2 5 6 -29 6 -29 7 7 71 30 51 32 52 76 52 50 0 50 1 18 -77 -11 -25 -21
-33 -42 -34 -23 -2 -24 -2 -4 -6 14 -3 22 -12 23 -26 l0 -22 9 23 c8 19 16 22
69 22 l60 0 4 -32 4 -33 1 33 2 32 139 0 140 0 4 -27 4 -28 2 28 c1 26 2 27
64 27 l64 0 12 -56 c7 -30 15 -53 18 -51 2 3 0 22 -6 44 -15 54 -14 63 11 63
12 0 19 3 16 6 -3 3 -108 5 -233 4 l-227 -1 7 48 c4 27 9 51 12 56 2 4 80 7
172 7 164 0 168 -1 180 -22 l11 -23 -6 23 c-5 22 -3 23 42 20 45 -3 50 -6 75
-48 34 -56 35 -67 7 -73 -13 -2 16 -5 63 -6 l86 -1 18 -40 c10 -22 20 -38 22
-36 3 2 -3 18 -11 35 -21 39 -21 39 12 44 24 3 23 4 -8 6 -30 2 -40 9 -73 56
l-38 55 33 0 c28 0 40 -8 75 -53 24 -28 43 -58 43 -64 0 -7 4 -13 10 -13 5 0
21 -20 36 -45 14 -25 28 -45 31 -45 3 0 -7 21 -22 46 l-27 45 33 -3 c27 -3 38
-12 72 -66 22 -35 38 -65 35 -67 -2 -2 -29 -11 -59 -18 -54 -14 -54 -14 -21
-21 17 -4 32 -11 32 -16 0 -4 8 -6 18 -3 23 6 60 -34 68 -75 6 -28 4 -32 -14
-32 -15 0 -25 12 -38 45 -9 25 -19 44 -21 42 -2 -2 5 -25 14 -50 17 -46 18
-47 63 -48 25 -1 57 0 72 1 28 1 29 0 54 -103 3 -15 8 -26 11 -24 2 3 -2 30
-11 62 -13 51 -13 56 1 51 11 -5 13 -2 9 10 -3 8 -6 19 -6 22 0 4 -4 1 -9 -7
-7 -11 -14 -5 -31 25 -19 35 -21 31 -4 -11 5 -12 -2 -15 -30 -15 -28 0 -36 4
-36 18 0 14 2 15 10 2 7 -11 8 -7 4 15 -7 39 16 61 88 86 42 14 47 18 25 18
-68 2 -127 53 -127 111 0 11 -4 20 -10 20 -5 0 -10 -6 -10 -14 0 -8 -4 -18
-10 -21 -5 -3 -7 0 -4 9 8 21 -116 148 -209 212 -171 118 -337 173 -542 179
-71 2 -152 0 -180 -4z m95 -11 c0 -5 -7 -10 -16 -10 -8 0 -12 5 -9 10 3 6 10
10 16 10 5 0 9 -4 9 -10z m85 0 c4 -6 -10 -10 -35 -10 -25 0 -39 4 -35 10 3 6
19 10 35 10 16 0 32 -4 35 -10z m45 0 c13 -8 13 -10 -2 -10 -9 0 -20 5 -23 10
-8 13 5 13 25 0z m-240 -55 c-15 -16 -34 -25 -53 -25 l-29 0 23 21 c23 19 23
20 2 10 -12 -6 -25 -16 -28 -21 -3 -6 -18 -10 -33 -10 -25 0 -25 0 -6 16 10 9
2 6 -20 -7 -21 -12 -57 -42 -79 -66 -31 -33 -47 -43 -71 -43 l-31 1 45 39 c25
22 53 40 63 40 9 0 17 5 17 11 0 6 -9 8 -22 4 -18 -4 -17 -2 5 10 16 9 31 14
34 11 3 -3 23 4 44 14 44 23 53 25 43 9 -4 -7 1 -7 16 1 12 6 28 9 36 6 8 -3
24 -2 36 3 33 12 35 5 8 -24z m90 30 c0 -4 -7 -20 -16 -36 -8 -17 -14 -35 -12
-41 2 -6 12 10 22 35 l17 46 59 0 59 -1 25 -61 c19 -45 25 -52 20 -27 -4 19
-13 44 -20 55 -20 27 -17 35 9 35 13 0 34 -11 47 -26 21 -21 22 -27 10 -34
-12 -8 -10 -10 7 -10 16 0 28 -12 43 -40 l20 -40 -50 0 c-33 0 -50 4 -50 13 0
9 -2 9 -8 0 -5 -8 -43 -12 -115 -12 l-107 0 5 27 5 27 -11 -27 c-10 -25 -15
-28 -60 -28 l-50 0 22 40 c15 26 30 40 43 41 12 0 15 3 8 6 -21 8 25 63 54 63
13 0 24 -2 24 -5z m275 -25 l38 -30 -28 0 c-16 0 -39 10 -52 22 -49 46 -14 53
42 8z m49 4 c14 -5 17 -4 12 5 -5 7 15 1 43 -13 28 -15 51 -31 51 -36 0 -6 8
-10 18 -10 9 0 37 -18 62 -40 43 -38 44 -39 19 -40 -19 0 -40 15 -75 52 -44
47 -53 52 -89 51 -30 -1 -48 5 -70 24 -30 25 -21 28 29 7z m-557 -86 c-20 -24
-51 -71 -69 -105 l-33 -63 -48 0 c-53 0 -53 -3 -5 68 23 34 35 42 61 43 26 1
27 3 8 6 -23 5 -22 6 20 49 31 32 51 44 72 44 l30 0 -36 -42z m93 2 c-19 -38
-23 -40 -66 -40 l-46 0 32 40 c26 33 38 40 66 40 l34 0 -20 -40z m500 0 l32
-40 -46 0 c-43 0 -47 2 -66 40 l-20 40 34 0 c28 0 40 -7 66 -40z m79 -4 c42
-43 43 -44 20 -49 -19 -3 -18 -5 8 -6 25 -1 38 -10 67 -51 20 -28 36 -52 36
-55 0 -3 -20 -5 -45 -5 -44 0 -46 1 -73 51 -15 28 -46 75 -70 105 l-43 54 28
0 c21 0 41 -12 72 -44z m-780 30 c-2 -2 -26 -22 -54 -45 -62 -51 -96 -55 -40
-4 l40 36 -53 -37 c-28 -20 -55 -36 -59 -36 -4 0 17 17 47 39 30 21 60 37 66
34 7 -2 15 0 19 6 3 6 13 11 22 11 9 0 14 -2 12 -4z m856 -7 c4 -6 13 -8 20
-6 9 4 88 -43 112 -66 2 -2 -11 -4 -29 -5 -22 0 -46 10 -79 36 -27 20 -48 40
-49 45 0 11 18 8 25 -4z m-578 -124 l-10 -55 -64 0 -63 0 20 50 c11 28 20 53
20 55 0 3 24 5 53 5 l54 0 -10 -55z m-344 -10 c-33 -47 -43 -54 -73 -56 -31
-2 -32 -3 -7 -6 15 -2 27 -9 27 -14 0 -5 -14 -36 -30 -69 l-30 -60 -46 0 -46
0 32 58 c18 31 38 62 46 68 8 6 14 15 14 20 0 5 21 33 46 62 36 41 52 52 75
52 l30 0 -38 -55z m-166 -22 c-31 -32 -60 -54 -64 -49 -4 4 18 32 50 63 75 72
88 59 14 -14z m113 60 c-1 -5 -20 -30 -43 -56 -32 -36 -49 -48 -65 -45 -21 3
-19 7 24 56 25 29 54 52 65 52 10 0 19 -3 19 -7z m1146 -45 c47 -51 48 -53 25
-56 -18 -3 -33 6 -58 35 -50 58 -58 73 -35 73 11 0 41 -24 68 -52z m53 -12
c25 -25 42 -49 38 -53 -8 -7 -117 95 -117 110 0 14 34 -10 79 -57z m-1320
-113 c-17 -32 -39 -64 -47 -70 -15 -13 -62 -18 -62 -8 0 3 18 35 41 70 35 56
45 65 71 65 l29 0 -32 -57z m-49 41 c0 -3 -18 -32 -41 -66 -35 -50 -45 -59
-65 -55 -13 2 -24 0 -24 -6 0 -6 -3 -8 -6 -4 -9 8 76 128 86 122 5 -3 11 -1
15 5 6 10 35 14 35 4z m1438 -6 c7 -7 12 -8 12 -4 0 5 7 3 15 -4 8 -7 15 -17
15 -23 0 -6 -7 -2 -16 9 -9 10 -7 3 5 -16 14 -25 17 -40 10 -50 -10 -17 -6
-21 -54 58 -18 29 -22 42 -13 42 8 0 19 -5 26 -12z m-1063 -116 c-6 -5 -39 -6
-75 -2 l-65 7 75 1 c40 1 70 -2 65 -6z"/>
<path d="M1820 1990 c0 -5 5 -10 10 -10 6 0 10 5 10 10 0 6 -4 10 -10 10 -5 0
-10 -4 -10 -10z"/>
<path d="M2105 2010 c3 -5 11 -10 16 -10 6 0 7 5 4 10 -3 6 -11 10 -16 10 -6
0 -7 -4 -4 -10z"/>
<path d="M2307 1939 c6 -8 26 -22 45 -32 l33 -19 -25 21 c-14 12 -34 27 -45
33 -17 9 -18 9 -8 -3z"/>
<path d="M1050 1682 c-37 -55 -41 -62 -36 -62 7 0 69 91 64 95 -2 2 -14 -13
-28 -33z"/>
<path d="M1952 1860 c0 -14 2 -19 5 -12 2 6 2 18 0 25 -3 6 -5 1 -5 -13z"/>
<path d="M2080 1835 c0 -5 5 -17 10 -25 5 -8 10 -10 10 -5 0 6 -5 17 -10 25
-5 8 -10 11 -10 5z"/>
<path d="M1962 1810 c0 -14 2 -19 5 -12 2 6 2 18 0 25 -3 6 -5 1 -5 -13z"/>
<path d="M1531 1704 c0 -11 3 -14 6 -6 3 7 2 16 -1 19 -3 4 -6 -2 -5 -13z"/>
<path d="M1982 1680 c0 -19 2 -27 5 -17 2 9 2 25 0 35 -3 9 -5 1 -5 -18z"/>
<path d="M2152 1585 c0 -16 2 -22 5 -12 2 9 2 23 0 30 -3 6 -5 -1 -5 -18z"/>
<path d="M2162 1525 c0 -16 2 -22 5 -12 2 9 2 23 0 30 -3 6 -5 -1 -5 -18z"/>
<path d="M2711 1545 c0 -5 8 -26 19 -45 11 -19 19 -30 19 -25 0 6 -8 26 -19
45 -11 19 -19 31 -19 25z"/>
<path d="M1341 1524 c0 -11 3 -14 6 -6 3 7 2 16 -1 19 -3 4 -6 -2 -5 -13z"/>
<path d="M1486 1500 l-6 -40 -70 0 c-66 0 -70 1 -71 23 l0 22 -9 -22 c-8 -20
-16 -23 -70 -23 l-60 0 5 28 5 27 -11 -27 c-8 -20 -18 -28 -37 -29 -23 -2 -24
-2 -5 -6 14 -3 23 -13 26 -31 l4 -27 2 28 c1 26 2 27 65 27 59 0 65 -2 69 -22
l4 -23 2 23 c1 21 5 22 75 22 63 0 75 -3 79 -17 4 -16 5 -16 6 -1 1 12 12 18
44 21 l42 4 -43 1 -42 2 6 40 c4 22 4 40 2 40 -3 0 -8 -18 -12 -40z"/>
<path d="M2000 1475 c0 -32 3 -55 7 -52 7 8 5 98 -2 105 -3 3 -5 -21 -5 -53z"/>
<path d="M1653 1450 c0 -36 2 -50 4 -32 2 17 2 47 0 65 -2 17 -4 3 -4 -33z"/>
<path d="M1827 1477 c-2 -7 -1 -30 3 -52 l8 -40 1 53 c1 52 -2 64 -12 39z"/>
<path d="M2871 1447 c164 -63 305 -171 349 -270 26 -55 25 -139 0 -195 l-19
-43 26 -10 c14 -5 27 -8 28 -7 1 2 17 47 34 100 35 105 48 123 86 116 32 -7
31 0 -3 48 -79 109 -247 208 -446 264 -142 39 -163 38 -55 -3z"/>
<path d="M2592 1410 c0 -14 2 -19 5 -12 2 6 2 18 0 25 -3 6 -5 1 -5 -13z"/>
<path d="M1056 1384 c-4 -20 -5 -38 -3 -40 3 -3 8 11 11 32 4 20 5 38 3 40 -3
3 -8 -11 -11 -32z"/>
<path d="M2182 1400 c0 -14 2 -19 5 -12 2 6 2 18 0 25 -3 6 -5 1 -5 -13z"/>
<path d="M2681 1404 c0 -11 3 -14 6 -6 3 7 2 16 -1 19 -3 4 -6 -2 -5 -13z"/>
<path d="M911 1394 c0 -11 3 -14 6 -6 3 7 2 16 -1 19 -3 4 -6 -2 -5 -13z"/>
<path d="M971 1394 c0 -11 3 -14 6 -6 3 7 2 16 -1 19 -3 4 -6 -2 -5 -13z"/>
<path d="M2342 1380 c0 -19 2 -27 5 -17 2 9 2 25 0 35 -3 9 -5 1 -5 -18z"/>
<path d="M2771 1394 c0 -11 3 -14 6 -6 3 7 2 16 -1 19 -3 4 -6 -2 -5 -13z"/>
<path d="M735 1377 c-6 -12 -26 -27 -45 -34 -27 -9 -30 -12 -12 -12 13 -1 33
-11 46 -24 l23 -23 17 23 c10 14 28 23 44 24 25 0 25 1 -8 12 -19 7 -39 22
-45 34 l-11 21 -9 -21z"/>
<path d="M1312 1380 c0 -14 2 -19 5 -12 2 6 2 18 0 25 -3 6 -5 1 -5 -13z"/>
<path d="M1472 1380 c0 -14 2 -19 5 -12 2 6 2 18 0 25 -3 6 -5 1 -5 -13z"/>
<path d="M2480 1385 c-1 -11 -9 -37 -18 -58 l-17 -39 -13 36 c-17 46 -42 48
-42 4 -1 -32 -1 -33 -18 -13 -29 32 -45 30 -40 -5 4 -28 3 -30 -29 -30 -39 0
-42 -14 -11 -47 l21 -23 -31 0 c-45 0 -48 -17 -5 -38 l37 -19 -37 -18 c-42
-20 -40 -35 4 -35 l30 0 -20 -26 c-28 -35 -18 -47 26 -29 45 19 46 19 33 -4
-13 -24 -13 -61 -1 -61 6 0 12 -15 14 -32 3 -30 4 -29 5 8 2 51 32 85 32 36 0
-48 19 -49 37 -2 l16 41 24 -48 c12 -26 23 -54 23 -60 0 -10 -36 -13 -149 -13
l-150 0 -4 33 -4 32 -1 -32 -2 -33 -84 0 -85 0 -4 38 -4 37 -1 -37 -2 -38 -84
0 -85 0 -4 38 -4 37 -1 -37 -2 -38 -89 0 -90 0 -4 38 -4 37 -1 -37 -2 -38 -84
0 c-85 0 -85 0 -89 28 l-4 27 -2 -27 c-1 -28 -1 -28 -75 -28 -63 0 -75 3 -79
18 -4 16 -5 16 -6 0 -1 -15 -11 -18 -70 -18 -46 0 -71 4 -74 13 -4 10 -6 10
-6 0 -1 -9 -25 -14 -78 -15 l-78 -2 80 -5 c79 -6 80 -6 87 -36 l7 -30 -3 33
-3 32 68 0 c66 0 68 -1 72 -27 l4 -28 2 28 c1 27 1 27 75 27 50 0 76 -4 79
-12 4 -10 6 -10 6 0 1 8 25 12 85 12 l85 0 4 -37 4 -38 1 38 2 38 88 -3 87 -3
2 -167 3 -168 -40 0 c-22 0 -40 2 -40 4 0 2 11 24 25 48 28 50 35 112 16 146
-16 30 -62 52 -109 52 -33 0 -45 -6 -70 -35 l-31 -34 -34 34 c-19 19 -42 35
-50 35 -9 0 -17 11 -20 28 l-4 27 -2 -27 c0 -17 -7 -28 -16 -28 -28 0 -67 -24
-81 -52 -19 -36 -41 -36 -47 0 l-4 27 -2 -27 c-1 -27 -2 -28 -65 -28 -63 0
-65 1 -69 27 l-4 28 -2 -27 c-1 -19 -7 -28 -23 -31 -20 -4 -20 -4 4 -6 19 -1
29 -9 37 -28 l11 -28 -5 28 -5 27 63 0 63 0 18 -76 c15 -64 16 -78 5 -85 -11
-7 -11 -9 2 -9 9 0 19 -6 22 -13 3 -6 14 -36 26 -64 l21 -53 -50 0 -50 0 -35
69 -35 70 28 4 c25 4 24 4 -5 6 -22 0 -33 6 -33 16 0 8 -4 15 -10 15 -5 0 -7
-7 -4 -15 5 -12 -3 -15 -40 -15 -55 0 -63 20 -8 21 41 1 36 4 -18 13 -33 6
-37 11 -54 60 -10 30 -15 59 -12 65 8 12 -1 14 -58 11 -23 -1 -42 4 -47 12 -7
10 -9 10 -9 1 0 -7 -11 -13 -24 -13 -17 0 -26 8 -34 33 -10 26 -11 27 -7 5 9
-46 -14 -31 -26 17 -6 25 -14 43 -17 41 -6 -7 38 -145 49 -152 5 -3 4 7 -1 22
-18 47 -2 38 24 -15 14 -28 26 -52 26 -55 0 -7 -32 -18 -90 -31 -43 -10 -48
-13 -24 -14 92 -3 140 -36 151 -104 l6 -40 19 34 c10 19 16 24 13 12 -5 -17 8
-36 56 -88 119 -126 301 -234 478 -283 84 -22 115 -26 251 -26 128 0 170 4
240 22 166 44 338 139 458 256 39 37 149 179 166 213 1 1 47 11 104 23 56 11
144 34 194 51 114 38 242 102 213 107 -11 2 -48 12 -83 22 l-63 19 -57 -34
c-48 -27 -237 -105 -257 -105 -4 0 -4 10 0 23 4 16 1 14 -11 -8 -23 -39 -30
-16 -9 26 12 22 19 28 25 20 5 -9 9 -8 14 4 9 23 8 25 -8 19 -10 -4 -12 2 -9
20 6 29 23 35 23 9 0 -15 2 -15 9 -4 8 12 12 12 25 2 9 -8 16 -19 16 -26 0 -8
13 0 29 16 23 22 39 29 73 30 l43 1 -50 9 c-36 6 -56 15 -71 34 -21 26 -21 26
-27 6 -7 -28 -26 -27 -21 2 3 16 1 15 -7 -5 -12 -30 -34 -39 -25 -10 3 9 8 29
12 45 7 31 20 36 27 10 3 -13 5 -12 6 5 1 17 -4 23 -16 20 -12 -2 -23 -21 -32
-56 -12 -44 -17 -52 -37 -52 -27 0 -28 2 -14 49 5 19 6 30 1 25 -4 -5 -14 -31
-21 -59 -6 -27 -14 -58 -17 -67 -3 -15 -15 -18 -60 -18 -31 0 -53 -3 -50 -7 4
-4 30 -6 57 -4 l49 2 -18 -41 c-10 -22 -20 -42 -22 -45 -5 -5 -183 -35 -186
-31 -1 1 5 25 14 54 14 44 21 52 42 53 25 2 25 2 3 6 -21 4 -23 9 -18 51 l5
47 -11 -47 -10 -48 -63 0 c-52 0 -64 3 -68 18 -4 16 -5 16 -6 0 -1 -16 -17
-17 -160 -17 -143 0 -160 1 -164 17 -4 16 -5 16 -6 0 -1 -13 -13 -18 -48 -21
l-48 -3 47 -2 47 -2 4 -42 4 -43 1 43 2 42 79 0 c67 0 80 -3 84 -17 4 -17 5
-17 6 0 1 14 12 17 75 17 l74 0 -15 -60 -15 -60 -69 0 c-48 0 -69 4 -69 13 0
8 -3 8 -9 -2 -12 -18 -139 -10 -152 10 -6 9 -9 10 -9 2 0 -6 -8 -14 -17 -16
-17 -4 -17 -5 0 -6 10 -1 17 -9 17 -21 0 -18 -7 -20 -75 -20 l-75 0 0 170 0
170 85 0 84 0 4 -62 3 -63 2 63 2 62 84 0 c80 0 85 -1 89 -22 l4 -23 2 23 c1
21 5 22 75 22 l75 0 4 -32 4 -33 1 33 2 32 69 0 70 0 -5 -37 c-5 -41 0 -36 10
10 7 28 8 28 66 26 33 -1 60 1 60 6 0 5 -27 7 -60 6 l-60 -2 0 50 c0 54 4 59
34 36 28 -21 37 -9 20 30 -19 46 -18 48 16 30 53 -27 68 -11 28 32 l-21 23 21
0 c14 0 22 -6 23 -17 0 -14 2 -15 6 -3 3 8 11 18 17 22 8 5 7 11 -2 20 -15 15
-16 50 0 66 9 9 7 13 -5 18 -9 3 -17 17 -17 30 0 19 5 24 27 24 14 0 24 3 20
6 -3 3 -33 6 -66 5 l-60 -1 9 26 c13 32 12 34 -2 34 -6 0 -22 -10 -35 -22
l-23 -21 -1 34 c0 19 -4 43 -9 54 l-9 20 -1 -20z m-130 -124 c0 -5 -9 -7 -20
-4 -11 3 -20 7 -20 9 0 2 9 4 20 4 11 0 20 -4 20 -9z m270 -25 c0 -7 -9 -16
-21 -19 -20 -5 -20 -5 -3 14 20 23 24 23 24 5z m-182 -47 c-3 -25 -23 -36 -30
-17 -3 7 -1 24 4 37 11 30 31 15 26 -20z m72 -4 c0 -28 -17 -42 -33 -26 -7 7
-7 18 1 36 14 30 32 24 32 -10z m120 -20 c0 -16 -9 -19 -36 -8 -16 6 -16 7 2
14 29 11 34 10 34 -6z m-209 -75 c36 -15 80 -1 96 31 9 17 13 19 13 7 0 -20
-46 -58 -71 -58 -44 0 -101 51 -98 87 0 4 7 -6 16 -24 9 -17 29 -37 44 -43z
m319 -302 c0 -7 -10 -38 -22 -70 -21 -53 -49 -80 -65 -64 -11 10 20 68 41 76
19 8 19 9 2 9 -12 1 -16 6 -12 17 3 9 6 22 6 30 0 8 10 14 25 14 14 0 25 -5
25 -12z m-1028 -85 c10 -6 8 -13 -9 -30 -21 -21 -22 -21 -28 -2 -4 10 -14 19
-23 19 -13 0 -12 3 6 16 12 8 22 23 23 32 0 13 2 12 9 -5 5 -12 15 -25 22 -30z
m-722 15 c0 -9 4 -8 11 2 10 15 9 7 -7 -52 -8 -27 -19 -22 -37 17 -22 45 -22
45 8 45 14 0 25 -6 25 -12z m102 -42 c26 -67 18 -78 -25 -34 -43 42 -52 92
-16 86 15 -2 27 -18 41 -52z m268 17 c0 -16 14 -52 30 -81 28 -52 28 -53 7
-50 -18 2 -25 15 -39 63 -19 71 -22 95 -8 95 6 0 10 -12 10 -27z m1100 19 c0
-5 -7 -29 -15 -54 -16 -45 -16 -45 -72 -52 -31 -4 -58 -5 -60 -2 -4 3 10 67
22 104 5 14 125 18 125 4z m-315 -143 c5 -5 -23 -9 -68 -9 -68 0 -77 2 -77 18
0 17 5 18 68 9 37 -5 71 -13 77 -18z m-1018 4 c-4 -3 -1 -11 7 -17 7 -6 28
-37 45 -68 l32 -58 -30 0 c-26 0 -34 8 -66 61 -21 33 -39 58 -42 55 -3 -2 9
-25 27 -51 31 -45 34 -62 8 -53 -7 3 -16 5 -19 4 -14 -3 -39 28 -34 42 3 8 1
20 -4 26 -13 15 -2 31 34 50 31 16 54 21 42 9z m1126 -10 c-18 -2 -48 -2 -65
0 -18 2 -4 4 32 4 36 0 50 -2 33 -4z m337 0 c0 -4 -19 -35 -41 -70 -35 -53
-46 -63 -70 -63 l-29 0 29 52 c41 72 57 88 86 88 14 0 25 -3 25 -7z m73 -8
c-18 -31 -75 -104 -81 -103 -4 1 -15 -2 -25 -7 -33 -14 -29 3 13 64 35 53 45
61 70 59 16 -1 26 -7 23 -13z m-1393 -55 c35 -69 36 -77 13 -83 -12 -3 -9 -5
8 -6 20 -1 35 -14 63 -56 l36 -55 -29 0 c-23 0 -40 12 -75 52 -25 29 -46 57
-46 62 0 5 -6 14 -14 20 -8 6 -28 37 -46 69 l-32 57 46 0 46 0 30 -60z m1134
43 c-5 -17 -5 -17 6 0 8 12 24 17 55 17 25 0 45 -2 45 -4 0 -13 -72 -126 -80
-126 -6 0 -9 -3 -7 -8 1 -4 -18 -33 -43 -65 -38 -48 -50 -57 -77 -57 l-32 0
37 55 c20 30 43 54 50 55 7 0 10 4 7 10 -3 5 4 28 15 51 12 22 20 43 17 45 -2
2 -14 -19 -27 -46 l-23 -50 -50 0 c-48 0 -49 0 -44 28 l6 27 -12 -27 c-8 -21
-18 -28 -41 -29 -24 -1 -26 -3 -8 -6 12 -2 22 -7 22 -9 0 -15 -49 -97 -87
-147 -39 -50 -48 -57 -79 -57 l-35 0 22 40 c19 34 28 40 58 42 l36 1 -32 4
c-18 2 -33 6 -33 7 0 2 7 20 16 41 8 20 13 39 11 41 -2 3 -12 -16 -21 -41
l-18 -45 -109 0 -109 0 0 55 0 55 64 0 64 0 -9 -37 c-5 -21 -8 -45 -8 -53 1
-8 7 8 13 35 l12 50 65 2 c110 3 105 2 90 12 -11 7 -12 17 -2 54 16 67 12 71
-8 7 l-17 -55 -62 -3 c-59 -3 -62 -2 -63 20 l-2 23 -4 -22 c-4 -21 -10 -23
-69 -23 l-64 0 0 70 0 69 150 0 c111 0 150 -3 151 -12 0 -9 2 -9 6 1 3 8 27
12 70 12 62 0 64 -1 57 -22 -12 -40 -11 -44 4 -11 16 35 26 40 89 42 36 1 42
-2 37 -16z m-922 -50 c74 -73 75 -87 6 -78 -62 8 -60 7 -83 65 -9 25 -19 51
-22 58 -3 7 4 12 18 12 15 0 44 -21 81 -57z m348 -13 l0 -70 -70 0 -70 0 -2
33 -1 32 -4 -32 c-4 -30 -7 -33 -39 -33 -19 0 -34 3 -34 7 0 3 28 35 63 69 58
59 65 63 110 63 l47 1 0 -70z m-640 -105 c29 -30 51 -57 47 -61 -7 -7 -117 94
-117 107 0 19 18 7 70 -46z m1350 48 c0 -14 -94 -103 -109 -103 -9 0 8 23 39
55 51 52 70 65 70 48z m-1281 -52 c47 -56 49 -64 20 -59 -12 2 -42 27 -67 56
-43 51 -44 52 -19 52 18 0 37 -14 66 -49z m1222 32 c-18 -34 -89 -95 -106 -91
-27 5 61 108 92 108 20 0 22 -3 14 -17z m-1023 -55 c18 -35 49 -82 69 -105
l36 -43 -30 0 c-21 0 -41 12 -72 44 -42 43 -43 44 -20 49 20 4 19 5 -7 6 -24
1 -37 10 -61 44 -49 69 -49 67 4 67 l48 0 33 -62z m101 34 c13 -16 13 -16 8 1
-6 15 1 17 58 17 60 0 65 -2 66 -22 l2 -23 4 23 c4 20 10 22 69 22 l64 0 0
-55 0 -54 -114 0 -114 0 -16 37 c-13 31 -12 11 1 -25 3 -7 -8 -13 -29 -16
l-33 -4 37 -1 c30 -2 39 -8 57 -38 12 -19 21 -37 21 -40 0 -2 -15 -4 -34 -4
-30 0 -40 7 -81 62 -43 57 -85 128 -85 144 0 13 106 -8 119 -24z m771 22 c0
-4 -16 -28 -36 -55 -29 -40 -42 -49 -67 -50 -26 -1 -27 -3 -8 -6 23 -5 22 -6
-20 -49 -31 -32 -51 -44 -72 -44 l-28 0 43 54 c24 30 55 77 70 105 27 50 29
51 73 51 25 0 45 -3 45 -6z m-1016 -140 l51 -36 -40 36 c-28 25 -35 36 -23 36
9 0 19 -4 22 -9 3 -5 23 -7 44 -4 34 5 41 1 85 -46 27 -28 54 -51 60 -52 7 -1
39 -1 71 0 48 1 64 -3 83 -21 29 -27 29 -40 1 -29 -13 4 -41 7 -63 6 -22 -1
-56 6 -76 16 -20 10 -39 16 -42 13 -3 -3 -18 2 -34 11 -22 12 -23 14 -5 10 13
-4 22 -2 22 4 0 6 -7 11 -16 11 -9 0 -37 16 -62 36 l-47 36 40 -36 c28 -25 35
-36 23 -36 -9 0 -20 5 -23 11 -4 6 -12 8 -19 6 -6 -3 -36 13 -66 34 -30 22
-51 39 -46 39 4 0 31 -16 60 -36z m1068 13 c-57 -44 -56 -43 -48 -28 6 9 4 12
-5 9 -8 -3 -14 -11 -14 -19 -1 -8 -7 -13 -14 -11 -7 1 -19 -3 -27 -9 -8 -7
-17 -9 -21 -6 -3 4 5 15 18 26 13 10 35 28 49 39 15 12 38 20 57 20 l32 -1
-27 -20z m-112 -27 c-27 -24 -55 -40 -70 -40 -23 1 -22 3 20 40 27 24 55 39
70 39 23 0 22 -2 -20 -39z m-442 -45 l-1 -75 -28 0 c-24 0 -30 6 -47 53 -29
79 -32 85 -26 50 6 -33 5 -33 -33 -33 -35 0 -42 4 -62 40 l-22 39 110 0 110 0
-1 -74z m113 63 c0 -10 2 -10 6 0 4 11 103 19 103 8 0 -3 -9 -21 -21 -40 -18
-32 -26 -36 -60 -36 -38 0 -39 1 -34 28 l5 27 -11 -27 c-8 -20 -18 -28 -37
-29 -24 -2 -24 -2 -4 -6 25 -5 25 -4 12 -37 -7 -19 -17 -26 -35 -26 -25 0 -25
1 -25 75 l0 75 50 0 c33 0 50 -4 51 -12z m267 -84 c-13 -7 -26 -10 -30 -8 -4
3 -22 -3 -40 -12 -18 -9 -51 -19 -73 -20 l-40 -3 25 19 c14 11 21 20 16 20 -6
0 -19 -8 -30 -19 -24 -22 -66 -37 -66 -23 0 4 11 19 24 31 20 19 32 21 90 18
37 -2 69 0 71 4 3 4 21 7 40 6 34 -1 35 -2 13 -13z m-460 -19 c16 -34 16 -35
-12 -35 -16 0 -32 11 -46 30 l-21 30 34 0 c27 0 36 -5 45 -25z m242 18 c0 -17
-46 -53 -66 -53 -24 0 -24 18 -1 48 10 12 67 17 67 5z m-210 -73 c0 -5 -7 -7
-15 -4 -8 4 -15 8 -15 10 0 2 7 4 15 4 8 0 15 -4 15 -10z m50 0 c0 -5 -6 -10
-14 -10 -8 0 -18 5 -21 10 -3 6 3 10 14 10 12 0 21 -4 21 -10z m35 0 c-3 -5
-10 -10 -16 -10 -5 0 -9 5 -9 10 0 6 7 10 16 10 8 0 12 -4 9 -10z m45 0 c-20
-13 -33 -13 -25 0 3 6 14 10 23 10 15 0 15 -2 2 -10z"/>
<path d="M1066 477 c3 -10 9 -15 12 -12 3 3 0 11 -7 18 -10 9 -11 8 -5 -6z"/>
<path d="M2611 514 c-18 -25 -30 -48 -28 -50 2 -3 12 7 21 21 9 14 23 36 32
50 28 43 9 27 -25 -21z"/>
<path d="M1982 500 c0 -19 2 -27 5 -17 2 9 2 25 0 35 -3 9 -5 1 -5 -18z"/>
<path d="M1702 330 c0 -14 2 -19 5 -12 2 6 2 18 0 25 -3 6 -5 1 -5 -13z"/>
<path d="M1531 176 c2 -2 15 -9 29 -15 24 -11 24 -11 6 3 -16 13 -49 24 -35
12z"/>
<path d="M1590 175 c0 -2 10 -10 23 -16 20 -11 21 -11 8 4 -13 16 -31 23 -31
12z"/>
<path d="M2349 273 c-13 -17 -13 -17 6 -3 11 8 22 16 24 17 2 2 0 3 -6 3 -6 0
-17 -8 -24 -17z"/>
<path d="M2096 165 c-11 -8 -16 -15 -10 -15 5 0 18 7 28 15 11 8 16 15 10 15
-5 0 -18 -7 -28 -15z"/>
<path d="M1172 1370 c0 -14 2 -19 5 -12 2 6 2 18 0 25 -3 6 -5 1 -5 -13z"/>
<path d="M2601 1364 c0 -11 3 -14 6 -6 3 7 2 16 -1 19 -3 4 -6 -2 -5 -13z"/>
<path d="M2692 1365 c0 -11 3 -29 8 -40 11 -25 11 1 0 35 -6 20 -8 21 -8 5z"/>
<path d="M896 1344 c-4 -14 -5 -29 -2 -31 3 -3 8 7 12 21 3 15 4 29 1 32 -2 3
-8 -7 -11 -22z"/>
<path d="M961 1354 c0 -11 3 -14 6 -6 3 7 2 16 -1 19 -3 4 -6 -2 -5 -13z"/>
<path d="M2785 1340 c4 -19 11 -39 16 -44 4 -5 3 8 -2 30 -14 50 -24 60 -14
14z"/>
<path d="M1836 1352 c-3 -5 -8 -81 -12 -169 l-7 -161 65 -7 c94 -10 112 -6
118 30 7 42 40 47 40 6 0 -16 4 -32 9 -36 6 -3 46 -8 89 -12 73 -5 80 -4 85
13 3 10 7 87 9 169 l3 150 -52 3 -53 3 0 -43 c0 -24 -3 -73 -7 -110 -5 -59 -9
-68 -26 -68 -18 0 -19 6 -16 113 l4 112 -50 0 -50 0 -8 -105 c-8 -106 -15
-128 -37 -115 -9 6 -11 36 -5 115 l7 107 -39 6 c-51 9 -61 9 -67 -1z"/>
<path d="M1549 1321 c-29 -29 -29 -30 -29 -148 0 -161 1 -163 61 -163 l49 0 0
39 c0 22 6 44 15 51 17 14 19 10 30 -53 l6 -38 47 3 47 3 3 110 c4 134 -2 170
-33 201 -21 21 -34 24 -95 24 -66 0 -74 -2 -101 -29z m116 -101 c0 -51 -29
-48 -33 3 -3 33 -1 38 15 35 13 -2 18 -12 18 -38z"/>
<path d="M1336 1329 c-50 -5 -75 -14 -93 -31 -25 -22 -25 -25 -20 -130 9 -176
27 -190 207 -171 l63 6 -7 89 c-3 50 -8 94 -12 99 -7 12 -75 12 -93 0 -10 -6
-12 -20 -8 -49 5 -28 3 -43 -7 -51 -23 -19 -37 20 -34 87 l3 57 35 3 c88 6
100 11 100 42 0 64 -2 65 -134 49z"/>
<path d="M2612 1320 c0 -14 2 -19 5 -12 2 6 2 18 0 25 -3 6 -5 1 -5 -13z"/>
<path d="M1078 1303 c-34 -5 -35 -19 -13 -143 19 -105 19 -100 -4 -100 -21 0
-22 3 -41 120 -6 36 -13 73 -16 83 -7 21 -31 22 -145 1 -79 -15 -89 -19 -89
-38 0 -22 22 -160 41 -255 l11 -53 44 5 c25 2 48 8 51 11 4 4 -1 54 -10 113
-12 72 -14 110 -7 117 19 19 31 -9 49 -113 10 -56 21 -104 23 -107 7 -7 211
27 222 37 8 7 -21 221 -41 307 -5 22 -14 24 -75 15z"/>
<path d="M2695 1193 c-9 -43 -25 -115 -35 -161 -20 -93 -19 -97 49 -104 34 -3
35 -2 51 52 l16 55 39 -2 c54 -4 61 -14 49 -73 -12 -59 -7 -66 53 -76 l41 -6
11 51 c15 70 14 79 -9 93 -29 18 -26 48 5 48 29 0 45 25 45 70 0 44 -15 67
-52 79 -38 12 -216 51 -234 51 -7 0 -19 -33 -29 -77z m198 -52 c8 -8 8 -14 0
-22 -17 -17 -87 2 -91 25 -4 17 1 18 38 13 23 -3 47 -10 53 -16z"/>
<path d="M562 1195 c-97 -30 -99 -48 -31 -307 11 -41 31 -48 84 -28 26 10 27
13 20 55 -6 41 -4 45 14 45 15 0 22 -9 27 -35 3 -19 10 -38 15 -41 11 -7 86
14 94 26 3 5 -8 64 -25 132 -24 96 -36 128 -56 146 -29 25 -76 28 -142 7z m70
-99 c11 -26 5 -56 -12 -56 -6 0 -15 12 -21 27 -18 49 11 75 33 29z"/>
<path d="M3075 1179 c-25 -70 -84 -304 -77 -311 11 -11 171 -58 199 -58 17 0
23 7 29 34 8 45 3 51 -51 66 -25 7 -48 16 -51 21 -4 6 20 102 52 211 4 13 -3
21 -21 28 -53 20 -75 22 -80 9z"/>
<path d="M305 1127 c-58 -21 -60 -24 -60 -57 0 -43 -26 -52 -43 -15 -6 14 -18
25 -25 25 -17 0 -140 -40 -149 -49 -8 -7 85 -298 100 -313 10 -10 83 13 89 29
3 7 -9 55 -27 108 -18 53 -29 102 -26 110 12 32 33 0 65 -96 18 -55 39 -103
46 -105 19 -8 85 23 85 39 0 7 -14 53 -30 102 -31 91 -32 115 -6 115 9 0 25
-34 46 -97 18 -54 36 -102 41 -107 9 -10 84 9 93 23 3 4 -17 76 -45 160 -58
172 -51 166 -154 128z"/>
<path d="M3301 950 c-29 -83 -50 -153 -47 -158 2 -4 42 -20 88 -36 131 -46
157 -31 207 121 32 94 32 95 14 131 -16 32 -27 40 -93 64 -119 42 -109 50
-169 -122z m157 17 c2 -9 -7 -44 -19 -77 -16 -44 -26 -60 -38 -58 -20 5 -18
29 10 102 20 55 40 69 47 33z"/>
<path d="M2813 965 c0 -22 2 -30 4 -17 2 12 2 30 0 40 -3 9 -5 -1 -4 -23z"/>
<path d="M946 885 c8 -37 14 -45 14 -19 0 10 -5 26 -10 34 -8 11 -9 7 -4 -15z"/>
<path d="M1042 875 c0 -11 4 -31 8 -45 6 -20 8 -21 8 -5 0 11 -4 31 -8 45 -6
20 -8 21 -8 5z"/>
<path d="M861 864 c0 -11 3 -14 6 -6 3 7 2 16 -1 19 -3 4 -6 -2 -5 -13z"/>
<path d="M891 864 c0 -11 3 -14 6 -6 3 7 2 16 -1 19 -3 4 -6 -2 -5 -13z"/>
<path d="M2606 844 c-4 -20 -5 -38 -3 -40 3 -3 8 11 11 32 4 20 5 38 3 40 -3
3 -8 -11 -11 -32z"/>
<path d="M901 824 c0 -11 3 -14 6 -6 3 7 2 16 -1 19 -3 4 -6 -2 -5 -13z"/>
<path d="M961 824 c0 -11 3 -14 6 -6 3 7 2 16 -1 19 -3 4 -6 -2 -5 -13z"/>
<path d="M1312 815 c0 -16 2 -22 5 -12 2 9 2 23 0 30 -3 6 -5 -1 -5 -18z"/>
<path d="M2183 800 c0 -25 2 -35 4 -22 2 12 2 32 0 45 -2 12 -4 2 -4 -23z"/>
<path d="M1172 810 c0 -14 2 -19 5 -12 2 6 2 18 0 25 -3 6 -5 1 -5 -13z"/>
<path d="M2342 800 c0 -19 2 -27 5 -17 2 9 2 25 0 35 -3 9 -5 1 -5 -18z"/>
<path d="M530 808 c0 -16 319 -119 364 -118 6 1 -31 16 -82 35 -51 18 -114 46
-140 61 -34 21 -60 29 -94 29 -27 0 -48 -3 -48 -7z"/>
<path d="M971 784 c0 -11 3 -14 6 -6 3 7 2 16 -1 19 -3 4 -6 -2 -5 -13z"/>
<path d="M1062 780 c0 -14 2 -19 5 -12 2 6 2 18 0 25 -3 6 -5 1 -5 -13z"/>
<path d="M2592 770 c0 -14 2 -19 5 -12 2 6 2 18 0 25 -3 6 -5 1 -5 -13z"/>
<path d="M2561 679 c-6 -18 -9 -34 -7 -36 2 -2 9 10 15 28 6 18 9 34 7 36 -2
2 -9 -10 -15 -28z"/>
<path d="M2162 655 c0 -16 2 -22 5 -12 2 9 2 23 0 30 -3 6 -5 -1 -5 -18z"/>
<path d="M930 665 c0 -5 5 -17 10 -25 5 -8 10 -10 10 -5 0 6 -5 17 -10 25 -5
8 -10 11 -10 5z"/>
</g>
</svg>
